PathFileType	4	(X/Y/Z)	TVC_58_BWA_03_walk_RCNL2025.trc
DataRate	CameraRate	NumFrames	NumMarkers	Units	OrigDataRate	OrigDataStartFrame	OrigNumFrames
100	100	4	27	mm	100	126	335
Frame#	Time	R_Shoulder			L_Shoulder			C7			J_Notch			R_Elbow			L_Elbow			R_Wrist			L_Wrist			R_Asis			L_Asis			R_Psis			L_Psis			Sacral			Thoracic			Sternum			R_Thigh_Lateral			R_Knee_Lateral			R_Shank_Lateral			R_Ankle_Lateral			R_Heel			R_Toe			L_Thigh_Lateral			L_Knee_Lateral			L_Shank_Lateral			L_Ankle_Lateral			L_Heel			L_Toe		
		X1	Y1	Z1	X2	Y2	Z2	X3	Y3	Z3	X4	Y4	Z4	X5	Y5	Z5	X6	Y6	Z6	X7	Y7	Z7	X8	Y8	Z8	X9	Y9	Z9	X10	Y10	Z10	X11	Y11	Z11	X12	Y12	Z12	X13	Y13	Z13	X14	Y14	Z14	X15	Y15	Z15	X16	Y16	Z16	X17	Y17	Z17	X18	Y18	Z18	X19	Y19	Z19	X20	Y20	Z20	X21	Y21	Z21	X22	Y22	Z22	X23	Y23	Z23	X24	Y24	Z24	X25	Y25	Z25	X26	Y26	Z26	X27	Y27	Z27
126	1.25000000	-887.953674	1326.672729	233.521729	-850.184082	1350.295166	-121.046974	-927.207764	1408.500732	45.291340	-785.482849	1307.507446	63.000263	-960.881042	1011.957214	283.555878	-896.614990	1034.656616	-208.328003	-905.615479	771.200928	334.595795	-793.934052	806.258118	-248.710655	-774.083435	899.364319	189.451385	-774.600708	895.632935	-121.092896	-1001.497559	938.503418	93.440964	-1003.538513	942.591675	-18.813404	-1002.518036	940.547546	37.313780	-985.528259	1106.341919	31.263506	-691.496704	1069.193481	49.394447	-765.369751	697.824097	276.057465	-673.420959	488.263977	194.355240	-659.558533	293.025360	249.134979	-669.009827	77.519264	172.291061	-723.348389	58.341858	121.871628	-541.526245	73.957779	136.049438	-882.995300	661.477600	-200.676468	-887.045837	454.445770	-90.894768	-943.484863	272.116913	-141.161575	-1025.230225	63.041908	-48.604122	-1073.905518	61.953190	-1.394529	-892.921448	44.126652	-14.179079
127	1.26000000	-878.660645	1325.096069	234.444733	-840.732483	1349.059326	-120.114700	-917.858276	1407.261719	46.257957	-776.124817	1306.104980	63.945110	-954.186707	1010.903870	283.948517	-886.918152	1033.285034	-207.343765	-901.213226	769.764679	335.025681	-783.857178	805.026489	-247.513458	-764.482239	897.729187	189.753296	-766.448853	893.709045	-120.540565	-992.512939	937.406982	94.994255	-995.018311	941.437012	-17.061512	-993.765625	939.421997	38.966372	-976.460571	1105.127197	32.143280	-682.115479	1067.316284	49.541553	-758.418518	696.105408	277.679108	-665.497375	487.250824	195.815948	-644.675110	292.732941	250.424683	-645.546204	76.271217	172.912094	-699.468018	55.365913	122.512817	-517.394897	77.005180	136.419693	-875.871704	660.310974	-200.177261	-882.810303	453.373138	-90.097748	-940.569275	271.635651	-140.669586	-1025.038330	63.203438	-48.662998	-1073.680298	62.470078	-1.408759	-892.908081	44.058445	-14.219031
128	1.27000000	-869.254089	1323.461548	235.433151	-831.324036	1347.741089	-119.141510	-908.494080	1405.992920	47.294487	-766.721313	1304.681396	64.918633	-947.235657	1009.777405	284.401245	-877.355530	1031.776978	-206.208893	-896.564728	768.277344	335.435150	-773.873840	803.721924	-246.309875	-754.824768	896.074158	190.229294	-758.129211	891.749756	-119.968575	-983.422546	936.172424	96.551903	-986.394714	940.090759	-15.193935	-984.908630	938.131592	40.678984	-967.325317	1103.860962	33.121014	-672.617493	1065.416138	49.730312	-751.410889	694.316162	279.364258	-657.283142	486.226990	197.197510	-631.167908	292.301361	251.565277	-624.650269	75.492157	173.255875	-678.086914	53.261139	122.734177	-496.075592	79.462387	136.833893	-868.494446	659.007812	-199.588211	-878.335632	452.251251	-89.184387	-937.531311	271.248016	-140.182785	-1024.838379	63.389908	-48.716557	-1073.452393	63.038879	-1.408199	-892.893494	44.003014	-14.275400
129	1.28000000	-859.748352	1321.794312	236.486603	-821.954102	1346.363892	-118.126251	-899.118958	1404.712646	48.398426	-757.277771	1303.257812	65.924423	-940.014832	1008.595398	284.916931	-867.923157	1030.161011	-204.929779	-891.653351	766.754578	335.834534	-763.987335	802.367157	-245.095009	-745.124084	894.444702	190.894806	-749.626160	889.774475	-119.357880	-974.227356	934.822510	98.096382	-977.649048	938.568970	-13.247411	-975.938202	936.695740	42.424486	-958.125183	1102.562744	34.189690	-663.014160	1063.530762	49.983414	-744.260193	692.516479	281.100891	-648.727173	485.234314	198.485382	-619.070251	291.630981	252.533752	-606.447388	75.028816	173.344788	-659.366150	51.889259	122.570221	-477.660675	81.100021	137.284332	-860.874329	657.572266	-198.891739	-873.609558	451.088135	-88.155586	-934.448303	270.957581	-139.715378	-1024.632690	63.614975	-48.754776	-1073.222046	63.674511	-1.378972	-892.873779	43.964817	-14.349028
